<?xml version="1.0" encoding="utf-8" standalone="no"?>
<!DOCTYPE svg PUBLIC "-//W3C//DTD SVG 1.1//EN"
  "http://www.w3.org/Graphics/SVG/1.1/DTD/svg11.dtd">
<!-- Created with matplotlib (https://matplotlib.org/) -->
<svg height="386.034375pt" version="1.1" viewBox="0 0 392.14375 386.034375" width="392.14375pt" xmlns="http://www.w3.org/2000/svg" xmlns:xlink="http://www.w3.org/1999/xlink">
 <metadata>
  <rdf:RDF xmlns:cc="http://creativecommons.org/ns#" xmlns:dc="http://purl.org/dc/elements/1.1/" xmlns:rdf="http://www.w3.org/1999/02/22-rdf-syntax-ns#">
   <cc:Work>
    <dc:type rdf:resource="http://purl.org/dc/dcmitype/StillImage"/>
    <dc:date>2020-09-01T10:38:56.922605</dc:date>
    <dc:format>image/svg+xml</dc:format>
    <dc:creator>
     <cc:Agent>
      <dc:title>Matplotlib v3.3.1, https://matplotlib.org/</dc:title>
     </cc:Agent>
    </dc:creator>
   </cc:Work>
  </rdf:RDF>
 </metadata>
 <defs>
  <style type="text/css">*{stroke-linecap:butt;stroke-linejoin:round;}</style>
 </defs>
 <g id="figure_1">
  <g id="patch_1">
   <path d="M 0 386.034375 
L 392.14375 386.034375 
L 392.14375 0 
L 0 0 
z
" style="fill:none;"/>
  </g>
  <g id="axes_1">
   <g id="patch_2">
    <path d="M 50.14375 158.218125 
L 384.94375 158.218125 
L 384.94375 22.318125 
L 50.14375 22.318125 
z
" style="fill:#ffffff;"/>
   </g>
   <g id="matplotlib.axis_1">
    <g id="xtick_1">
     <g id="line2d_1">
      <defs>
       <path d="M 0 0 
L 0 3.5 
" id="m4505887026" style="stroke:#000000;stroke-width:0.8;"/>
      </defs>
      <g>
       <use style="stroke:#000000;stroke-width:0.8;" x="54.866634" xlink:href="#m4505887026" y="158.218125"/>
      </g>
     </g>
     <g id="text_1">
      <!-- 0 -->
      <g transform="translate(51.685384 172.816562)scale(0.1 -0.1)">
       <defs>
        <path d="M 31.78125 66.40625 
Q 24.171875 66.40625 20.328125 58.90625 
Q 16.5 51.421875 16.5 36.375 
Q 16.5 21.390625 20.328125 13.890625 
Q 24.171875 6.390625 31.78125 6.390625 
Q 39.453125 6.390625 43.28125 13.890625 
Q 47.125 21.390625 47.125 36.375 
Q 47.125 51.421875 43.28125 58.90625 
Q 39.453125 66.40625 31.78125 66.40625 
z
M 31.78125 74.21875 
Q 44.046875 74.21875 50.515625 64.515625 
Q 56.984375 54.828125 56.984375 36.375 
Q 56.984375 17.96875 50.515625 8.265625 
Q 44.046875 -1.421875 31.78125 -1.421875 
Q 19.53125 -1.421875 13.0625 8.265625 
Q 6.59375 17.96875 6.59375 36.375 
Q 6.59375 54.828125 13.0625 64.515625 
Q 19.53125 74.21875 31.78125 74.21875 
z
" id="DejaVuSans-48"/>
       </defs>
       <use xlink:href="#DejaVuSans-48"/>
      </g>
     </g>
    </g>
    <g id="xtick_2">
     <g id="line2d_2">
      <g>
       <use style="stroke:#000000;stroke-width:0.8;" x="107.343123" xlink:href="#m4505887026" y="158.218125"/>
      </g>
     </g>
     <g id="text_2">
      <!-- 5 -->
      <g transform="translate(104.161873 172.816562)scale(0.1 -0.1)">
       <defs>
        <path d="M 10.796875 72.90625 
L 49.515625 72.90625 
L 49.515625 64.59375 
L 19.828125 64.59375 
L 19.828125 46.734375 
Q 21.96875 47.46875 24.109375 47.828125 
Q 26.265625 48.1875 28.421875 48.1875 
Q 40.625 48.1875 47.75 41.5 
Q 54.890625 34.8125 54.890625 23.390625 
Q 54.890625 11.625 47.5625 5.09375 
Q 40.234375 -1.421875 26.90625 -1.421875 
Q 22.3125 -1.421875 17.546875 -0.640625 
Q 12.796875 0.140625 7.71875 1.703125 
L 7.71875 11.625 
Q 12.109375 9.234375 16.796875 8.0625 
Q 21.484375 6.890625 26.703125 6.890625 
Q 35.15625 6.890625 40.078125 11.328125 
Q 45.015625 15.765625 45.015625 23.390625 
Q 45.015625 31 40.078125 35.4375 
Q 35.15625 39.890625 26.703125 39.890625 
Q 22.75 39.890625 18.8125 39.015625 
Q 14.890625 38.140625 10.796875 36.28125 
z
" id="DejaVuSans-53"/>
       </defs>
       <use xlink:href="#DejaVuSans-53"/>
      </g>
     </g>
    </g>
    <g id="xtick_3">
     <g id="line2d_3">
      <g>
       <use style="stroke:#000000;stroke-width:0.8;" x="159.819612" xlink:href="#m4505887026" y="158.218125"/>
      </g>
     </g>
     <g id="text_3">
      <!-- 10 -->
      <g transform="translate(153.457112 172.816562)scale(0.1 -0.1)">
       <defs>
        <path d="M 12.40625 8.296875 
L 28.515625 8.296875 
L 28.515625 63.921875 
L 10.984375 60.40625 
L 10.984375 69.390625 
L 28.421875 72.90625 
L 38.28125 72.90625 
L 38.28125 8.296875 
L 54.390625 8.296875 
L 54.390625 0 
L 12.40625 0 
z
" id="DejaVuSans-49"/>
       </defs>
       <use xlink:href="#DejaVuSans-49"/>
       <use x="63.623047" xlink:href="#DejaVuSans-48"/>
      </g>
     </g>
    </g>
    <g id="xtick_4">
     <g id="line2d_4">
      <g>
       <use style="stroke:#000000;stroke-width:0.8;" x="212.296101" xlink:href="#m4505887026" y="158.218125"/>
      </g>
     </g>
     <g id="text_4">
      <!-- 15 -->
      <g transform="translate(205.933601 172.816562)scale(0.1 -0.1)">
       <use xlink:href="#DejaVuSans-49"/>
       <use x="63.623047" xlink:href="#DejaVuSans-53"/>
      </g>
     </g>
    </g>
    <g id="xtick_5">
     <g id="line2d_5">
      <g>
       <use style="stroke:#000000;stroke-width:0.8;" x="264.77259" xlink:href="#m4505887026" y="158.218125"/>
      </g>
     </g>
     <g id="text_5">
      <!-- 20 -->
      <g transform="translate(258.41009 172.816562)scale(0.1 -0.1)">
       <defs>
        <path d="M 19.1875 8.296875 
L 53.609375 8.296875 
L 53.609375 0 
L 7.328125 0 
L 7.328125 8.296875 
Q 12.9375 14.109375 22.625 23.890625 
Q 32.328125 33.6875 34.8125 36.53125 
Q 39.546875 41.84375 41.421875 45.53125 
Q 43.3125 49.21875 43.3125 52.78125 
Q 43.3125 58.59375 39.234375 62.25 
Q 35.15625 65.921875 28.609375 65.921875 
Q 23.96875 65.921875 18.8125 64.3125 
Q 13.671875 62.703125 7.8125 59.421875 
L 7.8125 69.390625 
Q 13.765625 71.78125 18.9375 73 
Q 24.125 74.21875 28.421875 74.21875 
Q 39.75 74.21875 46.484375 68.546875 
Q 53.21875 62.890625 53.21875 53.421875 
Q 53.21875 48.921875 51.53125 44.890625 
Q 49.859375 40.875 45.40625 35.40625 
Q 44.1875 33.984375 37.640625 27.21875 
Q 31.109375 20.453125 19.1875 8.296875 
z
" id="DejaVuSans-50"/>
       </defs>
       <use xlink:href="#DejaVuSans-50"/>
       <use x="63.623047" xlink:href="#DejaVuSans-48"/>
      </g>
     </g>
    </g>
    <g id="xtick_6">
     <g id="line2d_6">
      <g>
       <use style="stroke:#000000;stroke-width:0.8;" x="317.249079" xlink:href="#m4505887026" y="158.218125"/>
      </g>
     </g>
     <g id="text_6">
      <!-- 25 -->
      <g transform="translate(310.886579 172.816562)scale(0.1 -0.1)">
       <use xlink:href="#DejaVuSans-50"/>
       <use x="63.623047" xlink:href="#DejaVuSans-53"/>
      </g>
     </g>
    </g>
    <g id="xtick_7">
     <g id="line2d_7">
      <g>
       <use style="stroke:#000000;stroke-width:0.8;" x="369.725568" xlink:href="#m4505887026" y="158.218125"/>
      </g>
     </g>
     <g id="text_7">
      <!-- 30 -->
      <g transform="translate(363.363068 172.816562)scale(0.1 -0.1)">
       <defs>
        <path d="M 40.578125 39.3125 
Q 47.65625 37.796875 51.625 33 
Q 55.609375 28.21875 55.609375 21.1875 
Q 55.609375 10.40625 48.1875 4.484375 
Q 40.765625 -1.421875 27.09375 -1.421875 
Q 22.515625 -1.421875 17.65625 -0.515625 
Q 12.796875 0.390625 7.625 2.203125 
L 7.625 11.71875 
Q 11.71875 9.328125 16.59375 8.109375 
Q 21.484375 6.890625 26.8125 6.890625 
Q 36.078125 6.890625 40.9375 10.546875 
Q 45.796875 14.203125 45.796875 21.1875 
Q 45.796875 27.640625 41.28125 31.265625 
Q 36.765625 34.90625 28.71875 34.90625 
L 20.21875 34.90625 
L 20.21875 43.015625 
L 29.109375 43.015625 
Q 36.375 43.015625 40.234375 45.921875 
Q 44.09375 48.828125 44.09375 54.296875 
Q 44.09375 59.90625 40.109375 62.90625 
Q 36.140625 65.921875 28.71875 65.921875 
Q 24.65625 65.921875 20.015625 65.03125 
Q 15.375 64.15625 9.8125 62.3125 
L 9.8125 71.09375 
Q 15.4375 72.65625 20.34375 73.4375 
Q 25.25 74.21875 29.59375 74.21875 
Q 40.828125 74.21875 47.359375 69.109375 
Q 53.90625 64.015625 53.90625 55.328125 
Q 53.90625 49.265625 50.4375 45.09375 
Q 46.96875 40.921875 40.578125 39.3125 
z
" id="DejaVuSans-51"/>
       </defs>
       <use xlink:href="#DejaVuSans-51"/>
       <use x="63.623047" xlink:href="#DejaVuSans-48"/>
      </g>
     </g>
    </g>
    <g id="text_8">
     <!-- Epochs -->
     <g transform="translate(199.628125 186.494687)scale(0.1 -0.1)">
      <defs>
       <path d="M 9.8125 72.90625 
L 55.90625 72.90625 
L 55.90625 64.59375 
L 19.671875 64.59375 
L 19.671875 43.015625 
L 54.390625 43.015625 
L 54.390625 34.71875 
L 19.671875 34.71875 
L 19.671875 8.296875 
L 56.78125 8.296875 
L 56.78125 0 
L 9.8125 0 
z
" id="DejaVuSans-69"/>
       <path d="M 18.109375 8.203125 
L 18.109375 -20.796875 
L 9.078125 -20.796875 
L 9.078125 54.6875 
L 18.109375 54.6875 
L 18.109375 46.390625 
Q 20.953125 51.265625 25.265625 53.625 
Q 29.59375 56 35.59375 56 
Q 45.5625 56 51.78125 48.09375 
Q 58.015625 40.1875 58.015625 27.296875 
Q 58.015625 14.40625 51.78125 6.484375 
Q 45.5625 -1.421875 35.59375 -1.421875 
Q 29.59375 -1.421875 25.265625 0.953125 
Q 20.953125 3.328125 18.109375 8.203125 
z
M 48.6875 27.296875 
Q 48.6875 37.203125 44.609375 42.84375 
Q 40.53125 48.484375 33.40625 48.484375 
Q 26.265625 48.484375 22.1875 42.84375 
Q 18.109375 37.203125 18.109375 27.296875 
Q 18.109375 17.390625 22.1875 11.75 
Q 26.265625 6.109375 33.40625 6.109375 
Q 40.53125 6.109375 44.609375 11.75 
Q 48.6875 17.390625 48.6875 27.296875 
z
" id="DejaVuSans-112"/>
       <path d="M 30.609375 48.390625 
Q 23.390625 48.390625 19.1875 42.75 
Q 14.984375 37.109375 14.984375 27.296875 
Q 14.984375 17.484375 19.15625 11.84375 
Q 23.34375 6.203125 30.609375 6.203125 
Q 37.796875 6.203125 41.984375 11.859375 
Q 46.1875 17.53125 46.1875 27.296875 
Q 46.1875 37.015625 41.984375 42.703125 
Q 37.796875 48.390625 30.609375 48.390625 
z
M 30.609375 56 
Q 42.328125 56 49.015625 48.375 
Q 55.71875 40.765625 55.71875 27.296875 
Q 55.71875 13.875 49.015625 6.21875 
Q 42.328125 -1.421875 30.609375 -1.421875 
Q 18.84375 -1.421875 12.171875 6.21875 
Q 5.515625 13.875 5.515625 27.296875 
Q 5.515625 40.765625 12.171875 48.375 
Q 18.84375 56 30.609375 56 
z
" id="DejaVuSans-111"/>
       <path d="M 48.78125 52.59375 
L 48.78125 44.1875 
Q 44.96875 46.296875 41.140625 47.34375 
Q 37.3125 48.390625 33.40625 48.390625 
Q 24.65625 48.390625 19.8125 42.84375 
Q 14.984375 37.3125 14.984375 27.296875 
Q 14.984375 17.28125 19.8125 11.734375 
Q 24.65625 6.203125 33.40625 6.203125 
Q 37.3125 6.203125 41.140625 7.25 
Q 44.96875 8.296875 48.78125 10.40625 
L 48.78125 2.09375 
Q 45.015625 0.34375 40.984375 -0.53125 
Q 36.96875 -1.421875 32.421875 -1.421875 
Q 20.0625 -1.421875 12.78125 6.34375 
Q 5.515625 14.109375 5.515625 27.296875 
Q 5.515625 40.671875 12.859375 48.328125 
Q 20.21875 56 33.015625 56 
Q 37.15625 56 41.109375 55.140625 
Q 45.0625 54.296875 48.78125 52.59375 
z
" id="DejaVuSans-99"/>
       <path d="M 54.890625 33.015625 
L 54.890625 0 
L 45.90625 0 
L 45.90625 32.71875 
Q 45.90625 40.484375 42.875 44.328125 
Q 39.84375 48.1875 33.796875 48.1875 
Q 26.515625 48.1875 22.3125 43.546875 
Q 18.109375 38.921875 18.109375 30.90625 
L 18.109375 0 
L 9.078125 0 
L 9.078125 75.984375 
L 18.109375 75.984375 
L 18.109375 46.1875 
Q 21.34375 51.125 25.703125 53.5625 
Q 30.078125 56 35.796875 56 
Q 45.21875 56 50.046875 50.171875 
Q 54.890625 44.34375 54.890625 33.015625 
z
" id="DejaVuSans-104"/>
       <path d="M 44.28125 53.078125 
L 44.28125 44.578125 
Q 40.484375 46.53125 36.375 47.5 
Q 32.28125 48.484375 27.875 48.484375 
Q 21.1875 48.484375 17.84375 46.4375 
Q 14.5 44.390625 14.5 40.28125 
Q 14.5 37.15625 16.890625 35.375 
Q 19.28125 33.59375 26.515625 31.984375 
L 29.59375 31.296875 
Q 39.15625 29.25 43.1875 25.515625 
Q 47.21875 21.78125 47.21875 15.09375 
Q 47.21875 7.46875 41.1875 3.015625 
Q 35.15625 -1.421875 24.609375 -1.421875 
Q 20.21875 -1.421875 15.453125 -0.5625 
Q 10.6875 0.296875 5.421875 2 
L 5.421875 11.28125 
Q 10.40625 8.6875 15.234375 7.390625 
Q 20.0625 6.109375 24.8125 6.109375 
Q 31.15625 6.109375 34.5625 8.28125 
Q 37.984375 10.453125 37.984375 14.40625 
Q 37.984375 18.0625 35.515625 20.015625 
Q 33.0625 21.96875 24.703125 23.78125 
L 21.578125 24.515625 
Q 13.234375 26.265625 9.515625 29.90625 
Q 5.8125 33.546875 5.8125 39.890625 
Q 5.8125 47.609375 11.28125 51.796875 
Q 16.75 56 26.8125 56 
Q 31.78125 56 36.171875 55.265625 
Q 40.578125 54.546875 44.28125 53.078125 
z
" id="DejaVuSans-115"/>
      </defs>
      <use xlink:href="#DejaVuSans-69"/>
      <use x="63.183594" xlink:href="#DejaVuSans-112"/>
      <use x="126.660156" xlink:href="#DejaVuSans-111"/>
      <use x="187.841797" xlink:href="#DejaVuSans-99"/>
      <use x="242.822266" xlink:href="#DejaVuSans-104"/>
      <use x="306.201172" xlink:href="#DejaVuSans-115"/>
     </g>
    </g>
   </g>
   <g id="matplotlib.axis_2">
    <g id="ytick_1">
     <g id="line2d_8">
      <defs>
       <path d="M 0 0 
L -3.5 0 
" id="m41878e96ea" style="stroke:#000000;stroke-width:0.8;"/>
      </defs>
      <g>
       <use style="stroke:#000000;stroke-width:0.8;" x="50.14375" xlink:href="#m41878e96ea" y="136.374754"/>
      </g>
     </g>
     <g id="text_9">
      <!-- 0.50 -->
      <g transform="translate(20.878125 140.173973)scale(0.1 -0.1)">
       <defs>
        <path d="M 10.6875 12.40625 
L 21 12.40625 
L 21 0 
L 10.6875 0 
z
" id="DejaVuSans-46"/>
       </defs>
       <use xlink:href="#DejaVuSans-48"/>
       <use x="63.623047" xlink:href="#DejaVuSans-46"/>
       <use x="95.410156" xlink:href="#DejaVuSans-53"/>
       <use x="159.033203" xlink:href="#DejaVuSans-48"/>
      </g>
     </g>
    </g>
    <g id="ytick_2">
     <g id="line2d_9">
      <g>
       <use style="stroke:#000000;stroke-width:0.8;" x="50.14375" xlink:href="#m41878e96ea" y="111.690034"/>
      </g>
     </g>
     <g id="text_10">
      <!-- 0.55 -->
      <g transform="translate(20.878125 115.489253)scale(0.1 -0.1)">
       <use xlink:href="#DejaVuSans-48"/>
       <use x="63.623047" xlink:href="#DejaVuSans-46"/>
       <use x="95.410156" xlink:href="#DejaVuSans-53"/>
       <use x="159.033203" xlink:href="#DejaVuSans-53"/>
      </g>
     </g>
    </g>
    <g id="ytick_3">
     <g id="line2d_10">
      <g>
       <use style="stroke:#000000;stroke-width:0.8;" x="50.14375" xlink:href="#m41878e96ea" y="87.005314"/>
      </g>
     </g>
     <g id="text_11">
      <!-- 0.60 -->
      <g transform="translate(20.878125 90.804533)scale(0.1 -0.1)">
       <defs>
        <path d="M 33.015625 40.375 
Q 26.375 40.375 22.484375 35.828125 
Q 18.609375 31.296875 18.609375 23.390625 
Q 18.609375 15.53125 22.484375 10.953125 
Q 26.375 6.390625 33.015625 6.390625 
Q 39.65625 6.390625 43.53125 10.953125 
Q 47.40625 15.53125 47.40625 23.390625 
Q 47.40625 31.296875 43.53125 35.828125 
Q 39.65625 40.375 33.015625 40.375 
z
M 52.59375 71.296875 
L 52.59375 62.3125 
Q 48.875 64.0625 45.09375 64.984375 
Q 41.3125 65.921875 37.59375 65.921875 
Q 27.828125 65.921875 22.671875 59.328125 
Q 17.53125 52.734375 16.796875 39.40625 
Q 19.671875 43.65625 24.015625 45.921875 
Q 28.375 48.1875 33.59375 48.1875 
Q 44.578125 48.1875 50.953125 41.515625 
Q 57.328125 34.859375 57.328125 23.390625 
Q 57.328125 12.15625 50.6875 5.359375 
Q 44.046875 -1.421875 33.015625 -1.421875 
Q 20.359375 -1.421875 13.671875 8.265625 
Q 6.984375 17.96875 6.984375 36.375 
Q 6.984375 53.65625 15.1875 63.9375 
Q 23.390625 74.21875 37.203125 74.21875 
Q 40.921875 74.21875 44.703125 73.484375 
Q 48.484375 72.75 52.59375 71.296875 
z
" id="DejaVuSans-54"/>
       </defs>
       <use xlink:href="#DejaVuSans-48"/>
       <use x="63.623047" xlink:href="#DejaVuSans-46"/>
       <use x="95.410156" xlink:href="#DejaVuSans-54"/>
       <use x="159.033203" xlink:href="#DejaVuSans-48"/>
      </g>
     </g>
    </g>
    <g id="ytick_4">
     <g id="line2d_11">
      <g>
       <use style="stroke:#000000;stroke-width:0.8;" x="50.14375" xlink:href="#m41878e96ea" y="62.320594"/>
      </g>
     </g>
     <g id="text_12">
      <!-- 0.65 -->
      <g transform="translate(20.878125 66.119813)scale(0.1 -0.1)">
       <use xlink:href="#DejaVuSans-48"/>
       <use x="63.623047" xlink:href="#DejaVuSans-46"/>
       <use x="95.410156" xlink:href="#DejaVuSans-54"/>
       <use x="159.033203" xlink:href="#DejaVuSans-53"/>
      </g>
     </g>
    </g>
    <g id="ytick_5">
     <g id="line2d_12">
      <g>
       <use style="stroke:#000000;stroke-width:0.8;" x="50.14375" xlink:href="#m41878e96ea" y="37.635874"/>
      </g>
     </g>
     <g id="text_13">
      <!-- 0.70 -->
      <g transform="translate(20.878125 41.435093)scale(0.1 -0.1)">
       <defs>
        <path d="M 8.203125 72.90625 
L 55.078125 72.90625 
L 55.078125 68.703125 
L 28.609375 0 
L 18.3125 0 
L 43.21875 64.59375 
L 8.203125 64.59375 
z
" id="DejaVuSans-55"/>
       </defs>
       <use xlink:href="#DejaVuSans-48"/>
       <use x="63.623047" xlink:href="#DejaVuSans-46"/>
       <use x="95.410156" xlink:href="#DejaVuSans-55"/>
       <use x="159.033203" xlink:href="#DejaVuSans-48"/>
      </g>
     </g>
    </g>
    <g id="text_14">
     <!-- loss -->
     <g transform="translate(14.798438 99.925937)rotate(-90)scale(0.1 -0.1)">
      <defs>
       <path d="M 9.421875 75.984375 
L 18.40625 75.984375 
L 18.40625 0 
L 9.421875 0 
z
" id="DejaVuSans-108"/>
      </defs>
      <use xlink:href="#DejaVuSans-108"/>
      <use x="27.783203" xlink:href="#DejaVuSans-111"/>
      <use x="88.964844" xlink:href="#DejaVuSans-115"/>
      <use x="141.064453" xlink:href="#DejaVuSans-115"/>
     </g>
    </g>
   </g>
   <g id="line2d_13">
    <path clip-path="url(#p9fb6b67809)" d="M 65.361932 28.495398 
L 75.85723 59.045645 
L 86.352527 71.423305 
L 96.847825 76.41639 
L 107.343123 82.928116 
L 117.838421 85.306894 
L 128.333719 88.743377 
L 138.829016 91.087549 
L 149.324314 94.327787 
L 159.819612 97.399353 
L 170.31491 99.983174 
L 180.810208 102.308749 
L 191.305505 105.32411 
L 201.800803 106.665368 
L 212.296101 109.735139 
L 222.791399 112.197399 
L 233.286697 116.291888 
L 243.781995 117.74332 
L 254.277292 120.517295 
L 264.77259 126.159469 
L 275.267888 128.499728 
L 285.763186 130.69409 
L 296.258484 135.75821 
L 306.753781 138.272129 
L 317.249079 141.014662 
L 327.744377 144.323376 
L 338.239675 146.629514 
L 348.734973 143.180245 
L 359.23027 140.93318 
L 369.725568 152.040852 
" style="fill:none;stroke:#0000ff;stroke-dasharray:5.55,2.4;stroke-dashoffset:0;stroke-width:1.5;"/>
    <defs>
     <path d="M 0 3 
C 0.795609 3 1.55874 2.683901 2.12132 2.12132 
C 2.683901 1.55874 3 0.795609 3 0 
C 3 -0.795609 2.683901 -1.55874 2.12132 -2.12132 
C 1.55874 -2.683901 0.795609 -3 0 -3 
C -0.795609 -3 -1.55874 -2.683901 -2.12132 -2.12132 
C -2.683901 -1.55874 -3 -0.795609 -3 0 
C -3 0.795609 -2.683901 1.55874 -2.12132 2.12132 
C -1.55874 2.683901 -0.795609 3 0 3 
z
" id="m2aa024a6ca" style="stroke:#0000ff;"/>
    </defs>
    <g clip-path="url(#p9fb6b67809)">
     <use style="fill:#0000ff;stroke:#0000ff;" x="65.361932" xlink:href="#m2aa024a6ca" y="28.495398"/>
     <use style="fill:#0000ff;stroke:#0000ff;" x="75.85723" xlink:href="#m2aa024a6ca" y="59.045645"/>
     <use style="fill:#0000ff;stroke:#0000ff;" x="86.352527" xlink:href="#m2aa024a6ca" y="71.423305"/>
     <use style="fill:#0000ff;stroke:#0000ff;" x="96.847825" xlink:href="#m2aa024a6ca" y="76.41639"/>
     <use style="fill:#0000ff;stroke:#0000ff;" x="107.343123" xlink:href="#m2aa024a6ca" y="82.928116"/>
     <use style="fill:#0000ff;stroke:#0000ff;" x="117.838421" xlink:href="#m2aa024a6ca" y="85.306894"/>
     <use style="fill:#0000ff;stroke:#0000ff;" x="128.333719" xlink:href="#m2aa024a6ca" y="88.743377"/>
     <use style="fill:#0000ff;stroke:#0000ff;" x="138.829016" xlink:href="#m2aa024a6ca" y="91.087549"/>
     <use style="fill:#0000ff;stroke:#0000ff;" x="149.324314" xlink:href="#m2aa024a6ca" y="94.327787"/>
     <use style="fill:#0000ff;stroke:#0000ff;" x="159.819612" xlink:href="#m2aa024a6ca" y="97.399353"/>
     <use style="fill:#0000ff;stroke:#0000ff;" x="170.31491" xlink:href="#m2aa024a6ca" y="99.983174"/>
     <use style="fill:#0000ff;stroke:#0000ff;" x="180.810208" xlink:href="#m2aa024a6ca" y="102.308749"/>
     <use style="fill:#0000ff;stroke:#0000ff;" x="191.305505" xlink:href="#m2aa024a6ca" y="105.32411"/>
     <use style="fill:#0000ff;stroke:#0000ff;" x="201.800803" xlink:href="#m2aa024a6ca" y="106.665368"/>
     <use style="fill:#0000ff;stroke:#0000ff;" x="212.296101" xlink:href="#m2aa024a6ca" y="109.735139"/>
     <use style="fill:#0000ff;stroke:#0000ff;" x="222.791399" xlink:href="#m2aa024a6ca" y="112.197399"/>
     <use style="fill:#0000ff;stroke:#0000ff;" x="233.286697" xlink:href="#m2aa024a6ca" y="116.291888"/>
     <use style="fill:#0000ff;stroke:#0000ff;" x="243.781995" xlink:href="#m2aa024a6ca" y="117.74332"/>
     <use style="fill:#0000ff;stroke:#0000ff;" x="254.277292" xlink:href="#m2aa024a6ca" y="120.517295"/>
     <use style="fill:#0000ff;stroke:#0000ff;" x="264.77259" xlink:href="#m2aa024a6ca" y="126.159469"/>
     <use style="fill:#0000ff;stroke:#0000ff;" x="275.267888" xlink:href="#m2aa024a6ca" y="128.499728"/>
     <use style="fill:#0000ff;stroke:#0000ff;" x="285.763186" xlink:href="#m2aa024a6ca" y="130.69409"/>
     <use style="fill:#0000ff;stroke:#0000ff;" x="296.258484" xlink:href="#m2aa024a6ca" y="135.75821"/>
     <use style="fill:#0000ff;stroke:#0000ff;" x="306.753781" xlink:href="#m2aa024a6ca" y="138.272129"/>
     <use style="fill:#0000ff;stroke:#0000ff;" x="317.249079" xlink:href="#m2aa024a6ca" y="141.014662"/>
     <use style="fill:#0000ff;stroke:#0000ff;" x="327.744377" xlink:href="#m2aa024a6ca" y="144.323376"/>
     <use style="fill:#0000ff;stroke:#0000ff;" x="338.239675" xlink:href="#m2aa024a6ca" y="146.629514"/>
     <use style="fill:#0000ff;stroke:#0000ff;" x="348.734973" xlink:href="#m2aa024a6ca" y="143.180245"/>
     <use style="fill:#0000ff;stroke:#0000ff;" x="359.23027" xlink:href="#m2aa024a6ca" y="140.93318"/>
     <use style="fill:#0000ff;stroke:#0000ff;" x="369.725568" xlink:href="#m2aa024a6ca" y="152.040852"/>
    </g>
   </g>
   <g id="line2d_14">
    <path clip-path="url(#p9fb6b67809)" d="M 65.361932 42.434486 
L 75.85723 35.819825 
L 86.352527 50.268932 
L 96.847825 60.149491 
L 107.343123 61.969313 
L 117.838421 59.853254 
L 128.333719 66.053914 
L 138.829016 69.59545 
L 149.324314 66.638942 
L 159.819612 69.355212 
L 170.31491 68.780159 
L 180.810208 72.707535 
L 191.305505 74.691292 
L 201.800803 76.165588 
L 212.296101 79.645946 
L 222.791399 79.403707 
L 233.286697 81.406915 
L 243.781995 81.049295 
L 254.277292 85.697531 
L 264.77259 84.765123 
L 275.267888 88.9177 
L 285.763186 93.503022 
L 296.258484 89.376753 
L 306.753781 94.759091 
L 317.249079 91.106353 
L 327.744377 93.962781 
L 338.239675 96.347032 
L 348.734973 87.885978 
L 359.23027 94.397705 
L 369.725568 92.605367 
" style="fill:none;stroke:#ff0000;stroke-linecap:square;stroke-width:1.5;"/>
    <defs>
     <path d="M 0 3 
C 0.795609 3 1.55874 2.683901 2.12132 2.12132 
C 2.683901 1.55874 3 0.795609 3 0 
C 3 -0.795609 2.683901 -1.55874 2.12132 -2.12132 
C 1.55874 -2.683901 0.795609 -3 0 -3 
C -0.795609 -3 -1.55874 -2.683901 -2.12132 -2.12132 
C -2.683901 -1.55874 -3 -0.795609 -3 0 
C -3 0.795609 -2.683901 1.55874 -2.12132 2.12132 
C -1.55874 2.683901 -0.795609 3 0 3 
z
" id="m3b1e983670" style="stroke:#ff0000;"/>
    </defs>
    <g clip-path="url(#p9fb6b67809)">
     <use style="fill:#ff0000;stroke:#ff0000;" x="65.361932" xlink:href="#m3b1e983670" y="42.434486"/>
     <use style="fill:#ff0000;stroke:#ff0000;" x="75.85723" xlink:href="#m3b1e983670" y="35.819825"/>
     <use style="fill:#ff0000;stroke:#ff0000;" x="86.352527" xlink:href="#m3b1e983670" y="50.268932"/>
     <use style="fill:#ff0000;stroke:#ff0000;" x="96.847825" xlink:href="#m3b1e983670" y="60.149491"/>
     <use style="fill:#ff0000;stroke:#ff0000;" x="107.343123" xlink:href="#m3b1e983670" y="61.969313"/>
     <use style="fill:#ff0000;stroke:#ff0000;" x="117.838421" xlink:href="#m3b1e983670" y="59.853254"/>
     <use style="fill:#ff0000;stroke:#ff0000;" x="128.333719" xlink:href="#m3b1e983670" y="66.053914"/>
     <use style="fill:#ff0000;stroke:#ff0000;" x="138.829016" xlink:href="#m3b1e983670" y="69.59545"/>
     <use style="fill:#ff0000;stroke:#ff0000;" x="149.324314" xlink:href="#m3b1e983670" y="66.638942"/>
     <use style="fill:#ff0000;stroke:#ff0000;" x="159.819612" xlink:href="#m3b1e983670" y="69.355212"/>
     <use style="fill:#ff0000;stroke:#ff0000;" x="170.31491" xlink:href="#m3b1e983670" y="68.780159"/>
     <use style="fill:#ff0000;stroke:#ff0000;" x="180.810208" xlink:href="#m3b1e983670" y="72.707535"/>
     <use style="fill:#ff0000;stroke:#ff0000;" x="191.305505" xlink:href="#m3b1e983670" y="74.691292"/>
     <use style="fill:#ff0000;stroke:#ff0000;" x="201.800803" xlink:href="#m3b1e983670" y="76.165588"/>
     <use style="fill:#ff0000;stroke:#ff0000;" x="212.296101" xlink:href="#m3b1e983670" y="79.645946"/>
     <use style="fill:#ff0000;stroke:#ff0000;" x="222.791399" xlink:href="#m3b1e983670" y="79.403707"/>
     <use style="fill:#ff0000;stroke:#ff0000;" x="233.286697" xlink:href="#m3b1e983670" y="81.406915"/>
     <use style="fill:#ff0000;stroke:#ff0000;" x="243.781995" xlink:href="#m3b1e983670" y="81.049295"/>
     <use style="fill:#ff0000;stroke:#ff0000;" x="254.277292" xlink:href="#m3b1e983670" y="85.697531"/>
     <use style="fill:#ff0000;stroke:#ff0000;" x="264.77259" xlink:href="#m3b1e983670" y="84.765123"/>
     <use style="fill:#ff0000;stroke:#ff0000;" x="275.267888" xlink:href="#m3b1e983670" y="88.9177"/>
     <use style="fill:#ff0000;stroke:#ff0000;" x="285.763186" xlink:href="#m3b1e983670" y="93.503022"/>
     <use style="fill:#ff0000;stroke:#ff0000;" x="296.258484" xlink:href="#m3b1e983670" y="89.376753"/>
     <use style="fill:#ff0000;stroke:#ff0000;" x="306.753781" xlink:href="#m3b1e983670" y="94.759091"/>
     <use style="fill:#ff0000;stroke:#ff0000;" x="317.249079" xlink:href="#m3b1e983670" y="91.106353"/>
     <use style="fill:#ff0000;stroke:#ff0000;" x="327.744377" xlink:href="#m3b1e983670" y="93.962781"/>
     <use style="fill:#ff0000;stroke:#ff0000;" x="338.239675" xlink:href="#m3b1e983670" y="96.347032"/>
     <use style="fill:#ff0000;stroke:#ff0000;" x="348.734973" xlink:href="#m3b1e983670" y="87.885978"/>
     <use style="fill:#ff0000;stroke:#ff0000;" x="359.23027" xlink:href="#m3b1e983670" y="94.397705"/>
     <use style="fill:#ff0000;stroke:#ff0000;" x="369.725568" xlink:href="#m3b1e983670" y="92.605367"/>
    </g>
   </g>
   <g id="patch_3">
    <path d="M 50.14375 158.218125 
L 50.14375 22.318125 
" style="fill:none;stroke:#000000;stroke-linecap:square;stroke-linejoin:miter;stroke-width:0.8;"/>
   </g>
   <g id="patch_4">
    <path d="M 384.94375 158.218125 
L 384.94375 22.318125 
" style="fill:none;stroke:#000000;stroke-linecap:square;stroke-linejoin:miter;stroke-width:0.8;"/>
   </g>
   <g id="patch_5">
    <path d="M 50.14375 158.218125 
L 384.94375 158.218125 
" style="fill:none;stroke:#000000;stroke-linecap:square;stroke-linejoin:miter;stroke-width:0.8;"/>
   </g>
   <g id="patch_6">
    <path d="M 50.14375 22.318125 
L 384.94375 22.318125 
" style="fill:none;stroke:#000000;stroke-linecap:square;stroke-linejoin:miter;stroke-width:0.8;"/>
   </g>
   <g id="text_15">
    <!-- Training and validation loss -->
    <g transform="translate(135.73375 16.318125)scale(0.12 -0.12)">
     <defs>
      <path d="M -0.296875 72.90625 
L 61.375 72.90625 
L 61.375 64.59375 
L 35.5 64.59375 
L 35.5 0 
L 25.59375 0 
L 25.59375 64.59375 
L -0.296875 64.59375 
z
" id="DejaVuSans-84"/>
      <path d="M 41.109375 46.296875 
Q 39.59375 47.171875 37.8125 47.578125 
Q 36.03125 48 33.890625 48 
Q 26.265625 48 22.1875 43.046875 
Q 18.109375 38.09375 18.109375 28.8125 
L 18.109375 0 
L 9.078125 0 
L 9.078125 54.6875 
L 18.109375 54.6875 
L 18.109375 46.1875 
Q 20.953125 51.171875 25.484375 53.578125 
Q 30.03125 56 36.53125 56 
Q 37.453125 56 38.578125 55.875 
Q 39.703125 55.765625 41.0625 55.515625 
z
" id="DejaVuSans-114"/>
      <path d="M 34.28125 27.484375 
Q 23.390625 27.484375 19.1875 25 
Q 14.984375 22.515625 14.984375 16.5 
Q 14.984375 11.71875 18.140625 8.90625 
Q 21.296875 6.109375 26.703125 6.109375 
Q 34.1875 6.109375 38.703125 11.40625 
Q 43.21875 16.703125 43.21875 25.484375 
L 43.21875 27.484375 
z
M 52.203125 31.203125 
L 52.203125 0 
L 43.21875 0 
L 43.21875 8.296875 
Q 40.140625 3.328125 35.546875 0.953125 
Q 30.953125 -1.421875 24.3125 -1.421875 
Q 15.921875 -1.421875 10.953125 3.296875 
Q 6 8.015625 6 15.921875 
Q 6 25.140625 12.171875 29.828125 
Q 18.359375 34.515625 30.609375 34.515625 
L 43.21875 34.515625 
L 43.21875 35.40625 
Q 43.21875 41.609375 39.140625 45 
Q 35.0625 48.390625 27.6875 48.390625 
Q 23 48.390625 18.546875 47.265625 
Q 14.109375 46.140625 10.015625 43.890625 
L 10.015625 52.203125 
Q 14.9375 54.109375 19.578125 55.046875 
Q 24.21875 56 28.609375 56 
Q 40.484375 56 46.34375 49.84375 
Q 52.203125 43.703125 52.203125 31.203125 
z
" id="DejaVuSans-97"/>
      <path d="M 9.421875 54.6875 
L 18.40625 54.6875 
L 18.40625 0 
L 9.421875 0 
z
M 9.421875 75.984375 
L 18.40625 75.984375 
L 18.40625 64.59375 
L 9.421875 64.59375 
z
" id="DejaVuSans-105"/>
      <path d="M 54.890625 33.015625 
L 54.890625 0 
L 45.90625 0 
L 45.90625 32.71875 
Q 45.90625 40.484375 42.875 44.328125 
Q 39.84375 48.1875 33.796875 48.1875 
Q 26.515625 48.1875 22.3125 43.546875 
Q 18.109375 38.921875 18.109375 30.90625 
L 18.109375 0 
L 9.078125 0 
L 9.078125 54.6875 
L 18.109375 54.6875 
L 18.109375 46.1875 
Q 21.34375 51.125 25.703125 53.5625 
Q 30.078125 56 35.796875 56 
Q 45.21875 56 50.046875 50.171875 
Q 54.890625 44.34375 54.890625 33.015625 
z
" id="DejaVuSans-110"/>
      <path d="M 45.40625 27.984375 
Q 45.40625 37.75 41.375 43.109375 
Q 37.359375 48.484375 30.078125 48.484375 
Q 22.859375 48.484375 18.828125 43.109375 
Q 14.796875 37.75 14.796875 27.984375 
Q 14.796875 18.265625 18.828125 12.890625 
Q 22.859375 7.515625 30.078125 7.515625 
Q 37.359375 7.515625 41.375 12.890625 
Q 45.40625 18.265625 45.40625 27.984375 
z
M 54.390625 6.78125 
Q 54.390625 -7.171875 48.1875 -13.984375 
Q 42 -20.796875 29.203125 -20.796875 
Q 24.46875 -20.796875 20.265625 -20.09375 
Q 16.0625 -19.390625 12.109375 -17.921875 
L 12.109375 -9.1875 
Q 16.0625 -11.328125 19.921875 -12.34375 
Q 23.78125 -13.375 27.78125 -13.375 
Q 36.625 -13.375 41.015625 -8.765625 
Q 45.40625 -4.15625 45.40625 5.171875 
L 45.40625 9.625 
Q 42.625 4.78125 38.28125 2.390625 
Q 33.9375 0 27.875 0 
Q 17.828125 0 11.671875 7.65625 
Q 5.515625 15.328125 5.515625 27.984375 
Q 5.515625 40.671875 11.671875 48.328125 
Q 17.828125 56 27.875 56 
Q 33.9375 56 38.28125 53.609375 
Q 42.625 51.21875 45.40625 46.390625 
L 45.40625 54.6875 
L 54.390625 54.6875 
z
" id="DejaVuSans-103"/>
      <path id="DejaVuSans-32"/>
      <path d="M 45.40625 46.390625 
L 45.40625 75.984375 
L 54.390625 75.984375 
L 54.390625 0 
L 45.40625 0 
L 45.40625 8.203125 
Q 42.578125 3.328125 38.25 0.953125 
Q 33.9375 -1.421875 27.875 -1.421875 
Q 17.96875 -1.421875 11.734375 6.484375 
Q 5.515625 14.40625 5.515625 27.296875 
Q 5.515625 40.1875 11.734375 48.09375 
Q 17.96875 56 27.875 56 
Q 33.9375 56 38.25 53.625 
Q 42.578125 51.265625 45.40625 46.390625 
z
M 14.796875 27.296875 
Q 14.796875 17.390625 18.875 11.75 
Q 22.953125 6.109375 30.078125 6.109375 
Q 37.203125 6.109375 41.296875 11.75 
Q 45.40625 17.390625 45.40625 27.296875 
Q 45.40625 37.203125 41.296875 42.84375 
Q 37.203125 48.484375 30.078125 48.484375 
Q 22.953125 48.484375 18.875 42.84375 
Q 14.796875 37.203125 14.796875 27.296875 
z
" id="DejaVuSans-100"/>
      <path d="M 2.984375 54.6875 
L 12.5 54.6875 
L 29.59375 8.796875 
L 46.6875 54.6875 
L 56.203125 54.6875 
L 35.6875 0 
L 23.484375 0 
z
" id="DejaVuSans-118"/>
      <path d="M 18.3125 70.21875 
L 18.3125 54.6875 
L 36.8125 54.6875 
L 36.8125 47.703125 
L 18.3125 47.703125 
L 18.3125 18.015625 
Q 18.3125 11.328125 20.140625 9.421875 
Q 21.96875 7.515625 27.59375 7.515625 
L 36.8125 7.515625 
L 36.8125 0 
L 27.59375 0 
Q 17.1875 0 13.234375 3.875 
Q 9.28125 7.765625 9.28125 18.015625 
L 9.28125 47.703125 
L 2.6875 47.703125 
L 2.6875 54.6875 
L 9.28125 54.6875 
L 9.28125 70.21875 
z
" id="DejaVuSans-116"/>
     </defs>
     <use xlink:href="#DejaVuSans-84"/>
     <use x="46.333984" xlink:href="#DejaVuSans-114"/>
     <use x="87.447266" xlink:href="#DejaVuSans-97"/>
     <use x="148.726562" xlink:href="#DejaVuSans-105"/>
     <use x="176.509766" xlink:href="#DejaVuSans-110"/>
     <use x="239.888672" xlink:href="#DejaVuSans-105"/>
     <use x="267.671875" xlink:href="#DejaVuSans-110"/>
     <use x="331.050781" xlink:href="#DejaVuSans-103"/>
     <use x="394.527344" xlink:href="#DejaVuSans-32"/>
     <use x="426.314453" xlink:href="#DejaVuSans-97"/>
     <use x="487.59375" xlink:href="#DejaVuSans-110"/>
     <use x="550.972656" xlink:href="#DejaVuSans-100"/>
     <use x="614.449219" xlink:href="#DejaVuSans-32"/>
     <use x="646.236328" xlink:href="#DejaVuSans-118"/>
     <use x="705.416016" xlink:href="#DejaVuSans-97"/>
     <use x="766.695312" xlink:href="#DejaVuSans-108"/>
     <use x="794.478516" xlink:href="#DejaVuSans-105"/>
     <use x="822.261719" xlink:href="#DejaVuSans-100"/>
     <use x="885.738281" xlink:href="#DejaVuSans-97"/>
     <use x="947.017578" xlink:href="#DejaVuSans-116"/>
     <use x="986.226562" xlink:href="#DejaVuSans-105"/>
     <use x="1014.009766" xlink:href="#DejaVuSans-111"/>
     <use x="1075.191406" xlink:href="#DejaVuSans-110"/>
     <use x="1138.570312" xlink:href="#DejaVuSans-32"/>
     <use x="1170.357422" xlink:href="#DejaVuSans-108"/>
     <use x="1198.140625" xlink:href="#DejaVuSans-111"/>
     <use x="1259.322266" xlink:href="#DejaVuSans-115"/>
     <use x="1311.421875" xlink:href="#DejaVuSans-115"/>
    </g>
   </g>
   <g id="legend_1">
    <g id="patch_7">
     <path d="M 298.353125 60.230625 
L 377.94375 60.230625 
Q 379.94375 60.230625 379.94375 58.230625 
L 379.94375 29.318125 
Q 379.94375 27.318125 377.94375 27.318125 
L 298.353125 27.318125 
Q 296.353125 27.318125 296.353125 29.318125 
L 296.353125 58.230625 
Q 296.353125 60.230625 298.353125 60.230625 
z
" style="fill:#ffffff;opacity:0.8;stroke:#cccccc;stroke-linejoin:miter;"/>
    </g>
    <g id="line2d_15">
     <path d="M 300.353125 35.416562 
L 320.353125 35.416562 
" style="fill:none;stroke:#0000ff;stroke-dasharray:5.55,2.4;stroke-dashoffset:0;stroke-width:1.5;"/>
    </g>
    <g id="line2d_16">
     <g>
      <use style="fill:#0000ff;stroke:#0000ff;" x="310.353125" xlink:href="#m2aa024a6ca" y="35.416562"/>
     </g>
    </g>
    <g id="text_16">
     <!-- train_loss -->
     <g transform="translate(328.353125 38.916562)scale(0.1 -0.1)">
      <defs>
       <path d="M 50.984375 -16.609375 
L 50.984375 -23.578125 
L -0.984375 -23.578125 
L -0.984375 -16.609375 
z
" id="DejaVuSans-95"/>
      </defs>
      <use xlink:href="#DejaVuSans-116"/>
      <use x="39.208984" xlink:href="#DejaVuSans-114"/>
      <use x="80.322266" xlink:href="#DejaVuSans-97"/>
      <use x="141.601562" xlink:href="#DejaVuSans-105"/>
      <use x="169.384766" xlink:href="#DejaVuSans-110"/>
      <use x="232.763672" xlink:href="#DejaVuSans-95"/>
      <use x="282.763672" xlink:href="#DejaVuSans-108"/>
      <use x="310.546875" xlink:href="#DejaVuSans-111"/>
      <use x="371.728516" xlink:href="#DejaVuSans-115"/>
      <use x="423.828125" xlink:href="#DejaVuSans-115"/>
     </g>
    </g>
    <g id="line2d_17">
     <path d="M 300.353125 50.372812 
L 320.353125 50.372812 
" style="fill:none;stroke:#ff0000;stroke-linecap:square;stroke-width:1.5;"/>
    </g>
    <g id="line2d_18">
     <g>
      <use style="fill:#ff0000;stroke:#ff0000;" x="310.353125" xlink:href="#m3b1e983670" y="50.372812"/>
     </g>
    </g>
    <g id="text_17">
     <!-- val_loss -->
     <g transform="translate(328.353125 53.872812)scale(0.1 -0.1)">
      <use xlink:href="#DejaVuSans-118"/>
      <use x="59.179688" xlink:href="#DejaVuSans-97"/>
      <use x="120.458984" xlink:href="#DejaVuSans-108"/>
      <use x="148.242188" xlink:href="#DejaVuSans-95"/>
      <use x="198.242188" xlink:href="#DejaVuSans-108"/>
      <use x="226.025391" xlink:href="#DejaVuSans-111"/>
      <use x="287.207031" xlink:href="#DejaVuSans-115"/>
      <use x="339.306641" xlink:href="#DejaVuSans-115"/>
     </g>
    </g>
   </g>
  </g>
  <g id="axes_2">
   <g id="patch_8">
    <path d="M 50.14375 348.478125 
L 384.94375 348.478125 
L 384.94375 212.578125 
L 50.14375 212.578125 
z
" style="fill:#ffffff;"/>
   </g>
   <g id="matplotlib.axis_3">
    <g id="xtick_8">
     <g id="line2d_19">
      <g>
       <use style="stroke:#000000;stroke-width:0.8;" x="54.866634" xlink:href="#m4505887026" y="348.478125"/>
      </g>
     </g>
     <g id="text_18">
      <!-- 0 -->
      <g transform="translate(51.685384 363.076562)scale(0.1 -0.1)">
       <use xlink:href="#DejaVuSans-48"/>
      </g>
     </g>
    </g>
    <g id="xtick_9">
     <g id="line2d_20">
      <g>
       <use style="stroke:#000000;stroke-width:0.8;" x="107.343123" xlink:href="#m4505887026" y="348.478125"/>
      </g>
     </g>
     <g id="text_19">
      <!-- 5 -->
      <g transform="translate(104.161873 363.076562)scale(0.1 -0.1)">
       <use xlink:href="#DejaVuSans-53"/>
      </g>
     </g>
    </g>
    <g id="xtick_10">
     <g id="line2d_21">
      <g>
       <use style="stroke:#000000;stroke-width:0.8;" x="159.819612" xlink:href="#m4505887026" y="348.478125"/>
      </g>
     </g>
     <g id="text_20">
      <!-- 10 -->
      <g transform="translate(153.457112 363.076562)scale(0.1 -0.1)">
       <use xlink:href="#DejaVuSans-49"/>
       <use x="63.623047" xlink:href="#DejaVuSans-48"/>
      </g>
     </g>
    </g>
    <g id="xtick_11">
     <g id="line2d_22">
      <g>
       <use style="stroke:#000000;stroke-width:0.8;" x="212.296101" xlink:href="#m4505887026" y="348.478125"/>
      </g>
     </g>
     <g id="text_21">
      <!-- 15 -->
      <g transform="translate(205.933601 363.076562)scale(0.1 -0.1)">
       <use xlink:href="#DejaVuSans-49"/>
       <use x="63.623047" xlink:href="#DejaVuSans-53"/>
      </g>
     </g>
    </g>
    <g id="xtick_12">
     <g id="line2d_23">
      <g>
       <use style="stroke:#000000;stroke-width:0.8;" x="264.77259" xlink:href="#m4505887026" y="348.478125"/>
      </g>
     </g>
     <g id="text_22">
      <!-- 20 -->
      <g transform="translate(258.41009 363.076562)scale(0.1 -0.1)">
       <use xlink:href="#DejaVuSans-50"/>
       <use x="63.623047" xlink:href="#DejaVuSans-48"/>
      </g>
     </g>
    </g>
    <g id="xtick_13">
     <g id="line2d_24">
      <g>
       <use style="stroke:#000000;stroke-width:0.8;" x="317.249079" xlink:href="#m4505887026" y="348.478125"/>
      </g>
     </g>
     <g id="text_23">
      <!-- 25 -->
      <g transform="translate(310.886579 363.076562)scale(0.1 -0.1)">
       <use xlink:href="#DejaVuSans-50"/>
       <use x="63.623047" xlink:href="#DejaVuSans-53"/>
      </g>
     </g>
    </g>
    <g id="xtick_14">
     <g id="line2d_25">
      <g>
       <use style="stroke:#000000;stroke-width:0.8;" x="369.725568" xlink:href="#m4505887026" y="348.478125"/>
      </g>
     </g>
     <g id="text_24">
      <!-- 30 -->
      <g transform="translate(363.363068 363.076562)scale(0.1 -0.1)">
       <use xlink:href="#DejaVuSans-51"/>
       <use x="63.623047" xlink:href="#DejaVuSans-48"/>
      </g>
     </g>
    </g>
    <g id="text_25">
     <!-- Epochs -->
     <g transform="translate(199.628125 376.754687)scale(0.1 -0.1)">
      <use xlink:href="#DejaVuSans-69"/>
      <use x="63.183594" xlink:href="#DejaVuSans-112"/>
      <use x="126.660156" xlink:href="#DejaVuSans-111"/>
      <use x="187.841797" xlink:href="#DejaVuSans-99"/>
      <use x="242.822266" xlink:href="#DejaVuSans-104"/>
      <use x="306.201172" xlink:href="#DejaVuSans-115"/>
     </g>
    </g>
   </g>
   <g id="matplotlib.axis_4">
    <g id="ytick_6">
     <g id="line2d_26">
      <g>
       <use style="stroke:#000000;stroke-width:0.8;" x="50.14375" xlink:href="#m41878e96ea" y="313.396601"/>
      </g>
     </g>
     <g id="text_26">
      <!-- 0.6 -->
      <g transform="translate(27.240625 317.19582)scale(0.1 -0.1)">
       <use xlink:href="#DejaVuSans-48"/>
       <use x="63.623047" xlink:href="#DejaVuSans-46"/>
       <use x="95.410156" xlink:href="#DejaVuSans-54"/>
      </g>
     </g>
    </g>
    <g id="ytick_7">
     <g id="line2d_27">
      <g>
       <use style="stroke:#000000;stroke-width:0.8;" x="50.14375" xlink:href="#m41878e96ea" y="277.107966"/>
      </g>
     </g>
     <g id="text_27">
      <!-- 0.7 -->
      <g transform="translate(27.240625 280.907184)scale(0.1 -0.1)">
       <use xlink:href="#DejaVuSans-48"/>
       <use x="63.623047" xlink:href="#DejaVuSans-46"/>
       <use x="95.410156" xlink:href="#DejaVuSans-55"/>
      </g>
     </g>
    </g>
    <g id="ytick_8">
     <g id="line2d_28">
      <g>
       <use style="stroke:#000000;stroke-width:0.8;" x="50.14375" xlink:href="#m41878e96ea" y="240.819331"/>
      </g>
     </g>
     <g id="text_28">
      <!-- 0.8 -->
      <g transform="translate(27.240625 244.618549)scale(0.1 -0.1)">
       <defs>
        <path d="M 31.78125 34.625 
Q 24.75 34.625 20.71875 30.859375 
Q 16.703125 27.09375 16.703125 20.515625 
Q 16.703125 13.921875 20.71875 10.15625 
Q 24.75 6.390625 31.78125 6.390625 
Q 38.8125 6.390625 42.859375 10.171875 
Q 46.921875 13.96875 46.921875 20.515625 
Q 46.921875 27.09375 42.890625 30.859375 
Q 38.875 34.625 31.78125 34.625 
z
M 21.921875 38.8125 
Q 15.578125 40.375 12.03125 44.71875 
Q 8.5 49.078125 8.5 55.328125 
Q 8.5 64.0625 14.71875 69.140625 
Q 20.953125 74.21875 31.78125 74.21875 
Q 42.671875 74.21875 48.875 69.140625 
Q 55.078125 64.0625 55.078125 55.328125 
Q 55.078125 49.078125 51.53125 44.71875 
Q 48 40.375 41.703125 38.8125 
Q 48.828125 37.15625 52.796875 32.3125 
Q 56.78125 27.484375 56.78125 20.515625 
Q 56.78125 9.90625 50.3125 4.234375 
Q 43.84375 -1.421875 31.78125 -1.421875 
Q 19.734375 -1.421875 13.25 4.234375 
Q 6.78125 9.90625 6.78125 20.515625 
Q 6.78125 27.484375 10.78125 32.3125 
Q 14.796875 37.15625 21.921875 38.8125 
z
M 18.3125 54.390625 
Q 18.3125 48.734375 21.84375 45.5625 
Q 25.390625 42.390625 31.78125 42.390625 
Q 38.140625 42.390625 41.71875 45.5625 
Q 45.3125 48.734375 45.3125 54.390625 
Q 45.3125 60.0625 41.71875 63.234375 
Q 38.140625 66.40625 31.78125 66.40625 
Q 25.390625 66.40625 21.84375 63.234375 
Q 18.3125 60.0625 18.3125 54.390625 
z
" id="DejaVuSans-56"/>
       </defs>
       <use xlink:href="#DejaVuSans-48"/>
       <use x="63.623047" xlink:href="#DejaVuSans-46"/>
       <use x="95.410156" xlink:href="#DejaVuSans-56"/>
      </g>
     </g>
    </g>
    <g id="text_29">
     <!-- auc -->
     <g transform="translate(21.160938 289.510156)rotate(-90)scale(0.1 -0.1)">
      <defs>
       <path d="M 8.5 21.578125 
L 8.5 54.6875 
L 17.484375 54.6875 
L 17.484375 21.921875 
Q 17.484375 14.15625 20.5 10.265625 
Q 23.53125 6.390625 29.59375 6.390625 
Q 36.859375 6.390625 41.078125 11.03125 
Q 45.3125 15.671875 45.3125 23.6875 
L 45.3125 54.6875 
L 54.296875 54.6875 
L 54.296875 0 
L 45.3125 0 
L 45.3125 8.40625 
Q 42.046875 3.421875 37.71875 1 
Q 33.40625 -1.421875 27.6875 -1.421875 
Q 18.265625 -1.421875 13.375 4.4375 
Q 8.5 10.296875 8.5 21.578125 
z
M 31.109375 56 
z
" id="DejaVuSans-117"/>
      </defs>
      <use xlink:href="#DejaVuSans-97"/>
      <use x="61.279297" xlink:href="#DejaVuSans-117"/>
      <use x="124.658203" xlink:href="#DejaVuSans-99"/>
     </g>
    </g>
   </g>
   <g id="line2d_29">
    <path clip-path="url(#pb499f70a7d)" d="M 65.361932 342.300852 
L 75.85723 284.957566 
L 86.352527 281.121471 
L 96.847825 283.898294 
L 107.343123 278.391845 
L 117.838421 275.294189 
L 128.333719 271.583114 
L 138.829016 267.735232 
L 149.324314 264.368632 
L 159.819612 262.717182 
L 170.31491 259.15001 
L 180.810208 256.545425 
L 191.305505 251.871806 
L 201.800803 251.359853 
L 212.296101 245.282509 
L 222.791399 242.406601 
L 233.286697 238.523311 
L 243.781995 238.308657 
L 254.277292 235.98952 
L 264.77259 232.070865 
L 275.267888 231.615516 
L 285.763186 227.333525 
L 296.258484 225.656119 
L 306.753781 222.976047 
L 317.249079 222.754299 
L 327.744377 222.803831 
L 338.239675 218.800214 
L 348.734973 223.200174 
L 359.23027 224.688839 
L 369.725568 218.755398 
" style="fill:none;stroke:#0000ff;stroke-dasharray:5.55,2.4;stroke-dashoffset:0;stroke-width:1.5;"/>
    <g clip-path="url(#pb499f70a7d)">
     <use style="fill:#0000ff;stroke:#0000ff;" x="65.361932" xlink:href="#m2aa024a6ca" y="342.300852"/>
     <use style="fill:#0000ff;stroke:#0000ff;" x="75.85723" xlink:href="#m2aa024a6ca" y="284.957566"/>
     <use style="fill:#0000ff;stroke:#0000ff;" x="86.352527" xlink:href="#m2aa024a6ca" y="281.121471"/>
     <use style="fill:#0000ff;stroke:#0000ff;" x="96.847825" xlink:href="#m2aa024a6ca" y="283.898294"/>
     <use style="fill:#0000ff;stroke:#0000ff;" x="107.343123" xlink:href="#m2aa024a6ca" y="278.391845"/>
     <use style="fill:#0000ff;stroke:#0000ff;" x="117.838421" xlink:href="#m2aa024a6ca" y="275.294189"/>
     <use style="fill:#0000ff;stroke:#0000ff;" x="128.333719" xlink:href="#m2aa024a6ca" y="271.583114"/>
     <use style="fill:#0000ff;stroke:#0000ff;" x="138.829016" xlink:href="#m2aa024a6ca" y="267.735232"/>
     <use style="fill:#0000ff;stroke:#0000ff;" x="149.324314" xlink:href="#m2aa024a6ca" y="264.368632"/>
     <use style="fill:#0000ff;stroke:#0000ff;" x="159.819612" xlink:href="#m2aa024a6ca" y="262.717182"/>
     <use style="fill:#0000ff;stroke:#0000ff;" x="170.31491" xlink:href="#m2aa024a6ca" y="259.15001"/>
     <use style="fill:#0000ff;stroke:#0000ff;" x="180.810208" xlink:href="#m2aa024a6ca" y="256.545425"/>
     <use style="fill:#0000ff;stroke:#0000ff;" x="191.305505" xlink:href="#m2aa024a6ca" y="251.871806"/>
     <use style="fill:#0000ff;stroke:#0000ff;" x="201.800803" xlink:href="#m2aa024a6ca" y="251.359853"/>
     <use style="fill:#0000ff;stroke:#0000ff;" x="212.296101" xlink:href="#m2aa024a6ca" y="245.282509"/>
     <use style="fill:#0000ff;stroke:#0000ff;" x="222.791399" xlink:href="#m2aa024a6ca" y="242.406601"/>
     <use style="fill:#0000ff;stroke:#0000ff;" x="233.286697" xlink:href="#m2aa024a6ca" y="238.523311"/>
     <use style="fill:#0000ff;stroke:#0000ff;" x="243.781995" xlink:href="#m2aa024a6ca" y="238.308657"/>
     <use style="fill:#0000ff;stroke:#0000ff;" x="254.277292" xlink:href="#m2aa024a6ca" y="235.98952"/>
     <use style="fill:#0000ff;stroke:#0000ff;" x="264.77259" xlink:href="#m2aa024a6ca" y="232.070865"/>
     <use style="fill:#0000ff;stroke:#0000ff;" x="275.267888" xlink:href="#m2aa024a6ca" y="231.615516"/>
     <use style="fill:#0000ff;stroke:#0000ff;" x="285.763186" xlink:href="#m2aa024a6ca" y="227.333525"/>
     <use style="fill:#0000ff;stroke:#0000ff;" x="296.258484" xlink:href="#m2aa024a6ca" y="225.656119"/>
     <use style="fill:#0000ff;stroke:#0000ff;" x="306.753781" xlink:href="#m2aa024a6ca" y="222.976047"/>
     <use style="fill:#0000ff;stroke:#0000ff;" x="317.249079" xlink:href="#m2aa024a6ca" y="222.754299"/>
     <use style="fill:#0000ff;stroke:#0000ff;" x="327.744377" xlink:href="#m2aa024a6ca" y="222.803831"/>
     <use style="fill:#0000ff;stroke:#0000ff;" x="338.239675" xlink:href="#m2aa024a6ca" y="218.800214"/>
     <use style="fill:#0000ff;stroke:#0000ff;" x="348.734973" xlink:href="#m2aa024a6ca" y="223.200174"/>
     <use style="fill:#0000ff;stroke:#0000ff;" x="359.23027" xlink:href="#m2aa024a6ca" y="224.688839"/>
     <use style="fill:#0000ff;stroke:#0000ff;" x="369.725568" xlink:href="#m2aa024a6ca" y="218.755398"/>
    </g>
   </g>
   <g id="line2d_30">
    <path clip-path="url(#pb499f70a7d)" d="M 65.361932 314.31672 
L 75.85723 308.391282 
L 86.352527 305.594171 
L 96.847825 307.066333 
L 107.343123 305.520565 
L 117.838421 302.281819 
L 128.333719 298.932674 
L 138.829016 298.564623 
L 149.324314 295.657114 
L 159.819612 295.252292 
L 170.31491 293.04405 
L 180.810208 289.989329 
L 191.305505 286.051315 
L 201.800803 284.579154 
L 212.296101 278.432898 
L 222.791399 276.003838 
L 233.286697 274.200439 
L 243.781995 272.102617 
L 254.277292 266.545252 
L 264.77259 266.177222 
L 275.267888 262.75445 
L 285.763186 262.533632 
L 296.258484 260.767047 
L 306.753781 260.325368 
L 317.249079 259.294864 
L 327.744377 259.110882 
L 338.239675 257.417881 
L 348.734973 258.779623 
L 359.23027 258.85325 
L 369.725568 257.675512 
" style="fill:none;stroke:#ff0000;stroke-linecap:square;stroke-width:1.5;"/>
    <g clip-path="url(#pb499f70a7d)">
     <use style="fill:#ff0000;stroke:#ff0000;" x="65.361932" xlink:href="#m3b1e983670" y="314.31672"/>
     <use style="fill:#ff0000;stroke:#ff0000;" x="75.85723" xlink:href="#m3b1e983670" y="308.391282"/>
     <use style="fill:#ff0000;stroke:#ff0000;" x="86.352527" xlink:href="#m3b1e983670" y="305.594171"/>
     <use style="fill:#ff0000;stroke:#ff0000;" x="96.847825" xlink:href="#m3b1e983670" y="307.066333"/>
     <use style="fill:#ff0000;stroke:#ff0000;" x="107.343123" xlink:href="#m3b1e983670" y="305.520565"/>
     <use style="fill:#ff0000;stroke:#ff0000;" x="117.838421" xlink:href="#m3b1e983670" y="302.281819"/>
     <use style="fill:#ff0000;stroke:#ff0000;" x="128.333719" xlink:href="#m3b1e983670" y="298.932674"/>
     <use style="fill:#ff0000;stroke:#ff0000;" x="138.829016" xlink:href="#m3b1e983670" y="298.564623"/>
     <use style="fill:#ff0000;stroke:#ff0000;" x="149.324314" xlink:href="#m3b1e983670" y="295.657114"/>
     <use style="fill:#ff0000;stroke:#ff0000;" x="159.819612" xlink:href="#m3b1e983670" y="295.252292"/>
     <use style="fill:#ff0000;stroke:#ff0000;" x="170.31491" xlink:href="#m3b1e983670" y="293.04405"/>
     <use style="fill:#ff0000;stroke:#ff0000;" x="180.810208" xlink:href="#m3b1e983670" y="289.989329"/>
     <use style="fill:#ff0000;stroke:#ff0000;" x="191.305505" xlink:href="#m3b1e983670" y="286.051315"/>
     <use style="fill:#ff0000;stroke:#ff0000;" x="201.800803" xlink:href="#m3b1e983670" y="284.579154"/>
     <use style="fill:#ff0000;stroke:#ff0000;" x="212.296101" xlink:href="#m3b1e983670" y="278.432898"/>
     <use style="fill:#ff0000;stroke:#ff0000;" x="222.791399" xlink:href="#m3b1e983670" y="276.003838"/>
     <use style="fill:#ff0000;stroke:#ff0000;" x="233.286697" xlink:href="#m3b1e983670" y="274.200439"/>
     <use style="fill:#ff0000;stroke:#ff0000;" x="243.781995" xlink:href="#m3b1e983670" y="272.102617"/>
     <use style="fill:#ff0000;stroke:#ff0000;" x="254.277292" xlink:href="#m3b1e983670" y="266.545252"/>
     <use style="fill:#ff0000;stroke:#ff0000;" x="264.77259" xlink:href="#m3b1e983670" y="266.177222"/>
     <use style="fill:#ff0000;stroke:#ff0000;" x="275.267888" xlink:href="#m3b1e983670" y="262.75445"/>
     <use style="fill:#ff0000;stroke:#ff0000;" x="285.763186" xlink:href="#m3b1e983670" y="262.533632"/>
     <use style="fill:#ff0000;stroke:#ff0000;" x="296.258484" xlink:href="#m3b1e983670" y="260.767047"/>
     <use style="fill:#ff0000;stroke:#ff0000;" x="306.753781" xlink:href="#m3b1e983670" y="260.325368"/>
     <use style="fill:#ff0000;stroke:#ff0000;" x="317.249079" xlink:href="#m3b1e983670" y="259.294864"/>
     <use style="fill:#ff0000;stroke:#ff0000;" x="327.744377" xlink:href="#m3b1e983670" y="259.110882"/>
     <use style="fill:#ff0000;stroke:#ff0000;" x="338.239675" xlink:href="#m3b1e983670" y="257.417881"/>
     <use style="fill:#ff0000;stroke:#ff0000;" x="348.734973" xlink:href="#m3b1e983670" y="258.779623"/>
     <use style="fill:#ff0000;stroke:#ff0000;" x="359.23027" xlink:href="#m3b1e983670" y="258.85325"/>
     <use style="fill:#ff0000;stroke:#ff0000;" x="369.725568" xlink:href="#m3b1e983670" y="257.675512"/>
    </g>
   </g>
   <g id="patch_9">
    <path d="M 50.14375 348.478125 
L 50.14375 212.578125 
" style="fill:none;stroke:#000000;stroke-linecap:square;stroke-linejoin:miter;stroke-width:0.8;"/>
   </g>
   <g id="patch_10">
    <path d="M 384.94375 348.478125 
L 384.94375 212.578125 
" style="fill:none;stroke:#000000;stroke-linecap:square;stroke-linejoin:miter;stroke-width:0.8;"/>
   </g>
   <g id="patch_11">
    <path d="M 50.14375 348.478125 
L 384.94375 348.478125 
" style="fill:none;stroke:#000000;stroke-linecap:square;stroke-linejoin:miter;stroke-width:0.8;"/>
   </g>
   <g id="patch_12">
    <path d="M 50.14375 212.578125 
L 384.94375 212.578125 
" style="fill:none;stroke:#000000;stroke-linecap:square;stroke-linejoin:miter;stroke-width:0.8;"/>
   </g>
   <g id="text_30">
    <!-- Training and validation auc -->
    <g transform="translate(136.544688 206.578125)scale(0.12 -0.12)">
     <use xlink:href="#DejaVuSans-84"/>
     <use x="46.333984" xlink:href="#DejaVuSans-114"/>
     <use x="87.447266" xlink:href="#DejaVuSans-97"/>
     <use x="148.726562" xlink:href="#DejaVuSans-105"/>
     <use x="176.509766" xlink:href="#DejaVuSans-110"/>
     <use x="239.888672" xlink:href="#DejaVuSans-105"/>
     <use x="267.671875" xlink:href="#DejaVuSans-110"/>
     <use x="331.050781" xlink:href="#DejaVuSans-103"/>
     <use x="394.527344" xlink:href="#DejaVuSans-32"/>
     <use x="426.314453" xlink:href="#DejaVuSans-97"/>
     <use x="487.59375" xlink:href="#DejaVuSans-110"/>
     <use x="550.972656" xlink:href="#DejaVuSans-100"/>
     <use x="614.449219" xlink:href="#DejaVuSans-32"/>
     <use x="646.236328" xlink:href="#DejaVuSans-118"/>
     <use x="705.416016" xlink:href="#DejaVuSans-97"/>
     <use x="766.695312" xlink:href="#DejaVuSans-108"/>
     <use x="794.478516" xlink:href="#DejaVuSans-105"/>
     <use x="822.261719" xlink:href="#DejaVuSans-100"/>
     <use x="885.738281" xlink:href="#DejaVuSans-97"/>
     <use x="947.017578" xlink:href="#DejaVuSans-116"/>
     <use x="986.226562" xlink:href="#DejaVuSans-105"/>
     <use x="1014.009766" xlink:href="#DejaVuSans-111"/>
     <use x="1075.191406" xlink:href="#DejaVuSans-110"/>
     <use x="1138.570312" xlink:href="#DejaVuSans-32"/>
     <use x="1170.357422" xlink:href="#DejaVuSans-97"/>
     <use x="1231.636719" xlink:href="#DejaVuSans-117"/>
     <use x="1295.015625" xlink:href="#DejaVuSans-99"/>
    </g>
   </g>
   <g id="legend_2">
    <g id="patch_13">
     <path d="M 57.14375 250.490625 
L 135.382812 250.490625 
Q 137.382812 250.490625 137.382812 248.490625 
L 137.382812 219.578125 
Q 137.382812 217.578125 135.382812 217.578125 
L 57.14375 217.578125 
Q 55.14375 217.578125 55.14375 219.578125 
L 55.14375 248.490625 
Q 55.14375 250.490625 57.14375 250.490625 
z
" style="fill:#ffffff;opacity:0.8;stroke:#cccccc;stroke-linejoin:miter;"/>
    </g>
    <g id="line2d_31">
     <path d="M 59.14375 225.676562 
L 79.14375 225.676562 
" style="fill:none;stroke:#0000ff;stroke-dasharray:5.55,2.4;stroke-dashoffset:0;stroke-width:1.5;"/>
    </g>
    <g id="line2d_32">
     <g>
      <use style="fill:#0000ff;stroke:#0000ff;" x="69.14375" xlink:href="#m2aa024a6ca" y="225.676562"/>
     </g>
    </g>
    <g id="text_31">
     <!-- train_auc -->
     <g transform="translate(87.14375 229.176562)scale(0.1 -0.1)">
      <use xlink:href="#DejaVuSans-116"/>
      <use x="39.208984" xlink:href="#DejaVuSans-114"/>
      <use x="80.322266" xlink:href="#DejaVuSans-97"/>
      <use x="141.601562" xlink:href="#DejaVuSans-105"/>
      <use x="169.384766" xlink:href="#DejaVuSans-110"/>
      <use x="232.763672" xlink:href="#DejaVuSans-95"/>
      <use x="282.763672" xlink:href="#DejaVuSans-97"/>
      <use x="344.042969" xlink:href="#DejaVuSans-117"/>
      <use x="407.421875" xlink:href="#DejaVuSans-99"/>
     </g>
    </g>
    <g id="line2d_33">
     <path d="M 59.14375 240.632812 
L 79.14375 240.632812 
" style="fill:none;stroke:#ff0000;stroke-linecap:square;stroke-width:1.5;"/>
    </g>
    <g id="line2d_34">
     <g>
      <use style="fill:#ff0000;stroke:#ff0000;" x="69.14375" xlink:href="#m3b1e983670" y="240.632812"/>
     </g>
    </g>
    <g id="text_32">
     <!-- val_auc -->
     <g transform="translate(87.14375 244.132812)scale(0.1 -0.1)">
      <use xlink:href="#DejaVuSans-118"/>
      <use x="59.179688" xlink:href="#DejaVuSans-97"/>
      <use x="120.458984" xlink:href="#DejaVuSans-108"/>
      <use x="148.242188" xlink:href="#DejaVuSans-95"/>
      <use x="198.242188" xlink:href="#DejaVuSans-97"/>
      <use x="259.521484" xlink:href="#DejaVuSans-117"/>
      <use x="322.900391" xlink:href="#DejaVuSans-99"/>
     </g>
    </g>
   </g>
  </g>
 </g>
 <defs>
  <clipPath id="p9fb6b67809">
   <rect height="135.9" width="334.8" x="50.14375" y="22.318125"/>
  </clipPath>
  <clipPath id="pb499f70a7d">
   <rect height="135.9" width="334.8" x="50.14375" y="212.578125"/>
  </clipPath>
 </defs>
</svg>
